<svg xmlns="http://www.w3.org/2000/svg" width="91.75" height="16.732"><path fill="#F4B840" d="M91.719 6.334a.786.786 0 00-.744-.545h-5.461L83.826.546a.785.785 0 00-.742-.545c-.34 0-.64.221-.744.545l-1.688 5.243h-5.459a.784.784 0 00-.743.544.797.797 0 00.284.881l4.416 3.241-1.687 5.244a.792.792 0 00.742 1.031.768.768 0 00.457-.151l4.418-3.239 4.42 3.239a.774.774 0 00.918 0c.273-.2.39-.556.283-.878l-1.688-5.246 4.42-3.242a.79.79 0 00.286-.879zm-18.622 0a.784.784 0 00-.742-.545h-5.461L65.206.546a.782.782 0 00-.744-.545.784.784 0 00-.741.545l-1.688 5.243h-5.461a.78.78 0 00-.742.544.792.792 0 00.285.881l4.416 3.241-1.688 5.246a.788.788 0 00.742 1.031.785.785 0 00.457-.152l4.418-3.239 4.42 3.239a.771.771 0 00.916 0 .788.788 0 00.285-.877l-1.688-5.246 4.416-3.242a.782.782 0 00.288-.881zm-18.597 0a.78.78 0 00-.742-.545h-5.461L46.609.546a.784.784 0 00-.742-.545.788.788 0 00-.744.545l-1.688 5.243h-5.46a.784.784 0 00-.742.544.795.795 0 00.283.881l4.417 3.241-1.686 5.246a.79.79 0 00.742 1.031.79.79 0 00.458-.152l4.417-3.239 4.418 3.239a.771.771 0 00.918 0 .789.789 0 00.283-.877l-1.688-5.246 4.418-3.242a.786.786 0 00.287-.881zm-18.597 0a.784.784 0 00-.742-.545h-5.463L28.01.546a.782.782 0 00-.742-.545.785.785 0 00-.742.545l-1.688 5.243h-5.46a.782.782 0 00-.742.544.794.794 0 00.284.881l4.415 3.241-1.685 5.246a.783.783 0 001.202.879l4.416-3.239 4.419 3.239a.773.773 0 00.917 0 .787.787 0 00.283-.877l-1.686-5.246 4.418-3.242a.794.794 0 00.284-.881zm-18.599 0a.783.783 0 00-.741-.545H11.1L9.413.546a.783.783 0 00-.742-.545.783.783 0 00-.742.545L6.241 5.789H.781c-.34 0-.64.222-.744.544a.794.794 0 00.284.881l4.417 3.241-1.686 5.244a.79.79 0 00.742 1.031.778.778 0 00.458-.151L8.67 13.34l4.419 3.239c.272.2.644.2.917 0a.789.789 0 00.284-.878l-1.687-5.246 4.417-3.242a.783.783 0 00.284-.879z"/></svg>